<svg xmlns="http://www.w3.org/2000/svg" xmlns:xlink="http://www.w3.org/1999/xlink" viewBox="0 0 283.87 115.98"><defs><symbol id="b" viewBox="0 0 96.42 95.91"><path d="M14.1,25.1V91.92a2.1,2.1,0,0,1-3.26,1.75l0,0c-3.1-2.07-6.25-4.07-9.26-6.26A3.7,3.7,0,0,1,.06,84.87Q-.06,43.11,0,1.35C0,1,.06.68.12,0,4.58,3,8.81,5.72,13,8.53c11,7.35,22.08,14.69,33.05,22.12a3.21,3.21,0,0,0,4.2,0Q72.84,15.49,95.52.48A7.21,7.21,0,0,1,96.29.1c0,5.06.07,9.84-.08,14.62,0,.68-1,1.49-1.69,2Q77.74,27.94,60.9,39.11c-3.75,2.5-7.55,4.94-11.25,7.51a2.25,2.25,0,0,1-3,0" fill="#d6a72a"/><path d="M24.11,48.22,39.56,58.45c2.27,1.51,4.58,3,6.76,4.58a2.66,2.66,0,0,0,3.6,0Q71.69,48.45,93.54,34c.81-.54,1.65-1,2.71-1.7.06,1,.12,1.71.12,2.4,0,16.5,0,33,0,49.49a3.78,3.78,0,0,1-2,3.62c-4,2.55-7.84,5.27-12.1,8.15V57.43c-1.06.58-1.74.89-2.35,1.29Q64.78,68.85,49.61,79a2.14,2.14,0,0,1-2.84,0Q36.27,72,25.67,65a3,3,0,0,1-1.59-3C24.17,57.56,24.11,53.07,24.11,48.22Z" fill="#664839"/></symbol><symbol id="a" viewBox="0 0 283.87 115.98"><use width="96.42" height="95.91" transform="translate(0 4.82)" xlink:href="#b"/><path d="M148.87,5.43v41h-9.31V18.75l-3.71,27.67h-6.61l-3.91-27v27H116v-41h13.79c.41,2.46.83,5.37,1.27,8.71l1.51,10.43L135,5.43Z" fill="#d6a72a"/><path d="M162,25.83h-9.6V23.58a15.86,15.86,0,0,1,.9-6,8.39,8.39,0,0,1,3.61-3.74,13.59,13.59,0,0,1,7-1.62c3.46,0,6.06.62,7.82,1.84a7.15,7.15,0,0,1,3.16,4.51,69.45,69.45,0,0,1,.54,11V46.42h-10v-3a6.25,6.25,0,0,1-5.95,3.6,8.7,8.7,0,0,1-4.93-1.5q-2.24-1.52-2.24-6.6V36.16q0-3.77,1.19-5.14c.8-.91,2.76-2,5.9-3.19,3.36-1.31,5.16-2.2,5.39-2.65a7,7,0,0,0,.36-2.79,9.45,9.45,0,0,0-.39-3.43,1.37,1.37,0,0,0-1.31-.8c-.69,0-1.12.23-1.29.67a13.7,13.7,0,0,0-.25,3.49Zm3.24,4.61c-1.64,1.2-2.59,2.2-2.85,3A12.08,12.08,0,0,0,162,37a10,10,0,0,0,.34,3.36,1.33,1.33,0,0,0,1.35.76,1.25,1.25,0,0,0,1.26-.59,9.78,9.78,0,0,0,.29-3.13Z" fill="#d6a72a"/><path d="M201,12.82,196.85,26.2l5.39,20.22H192.4l-3.19-14.65V46.42H179v-41H189.2V22.64l3.19-9.82Z" fill="#d6a72a"/><path d="M226.92,30.21H213.68v7.27a8.07,8.07,0,0,0,.33,2.94,1.29,1.29,0,0,0,1.27.65,1.53,1.53,0,0,0,1.55-.87,9.61,9.61,0,0,0,.39-3.38V32.39h9.7v2.48a22.42,22.42,0,0,1-.39,4.79,9.67,9.67,0,0,1-1.84,3.57A9,9,0,0,1,221,46.07a14.05,14.05,0,0,1-5.56,1,16.22,16.22,0,0,1-5.72-.93A8.88,8.88,0,0,1,204,39.92a22.87,22.87,0,0,1-.54-5.71V24.42a16.71,16.71,0,0,1,1.19-7,8.2,8.2,0,0,1,3.9-3.9,15.59,15.59,0,0,1,13.33.28,8.94,8.94,0,0,1,3.92,4.33,20.06,20.06,0,0,1,1.13,7.58Zm-10.25-5.46V22.29a12.21,12.21,0,0,0-.28-3.37,1.12,1.12,0,0,0-1.14-.76c-.71,0-1.15.22-1.32.65a13.44,13.44,0,0,0-.25,3.48v2.46Z" fill="#d6a72a"/><path d="M253.68,12.82v33.6h-10.4l.17-2.8a7,7,0,0,1-2.62,2.55,7.32,7.32,0,0,1-3.58.85,8,8,0,0,1-3.82-.81,5.24,5.24,0,0,1-2.24-2.15,7.92,7.92,0,0,1-.9-2.8c-.12-1-.18-2.89-.18-5.78V12.82h10.23V35.68a23.88,23.88,0,0,0,.24,4.66c.16.49.59.73,1.3.73s1.21-.25,1.36-.76a29.69,29.69,0,0,0,.21-4.88V12.82Z" fill="#d6a72a"/><path d="M267.76,12.82l-.18,3a9.43,9.43,0,0,1,3-2.69,7.49,7.49,0,0,1,3.59-.89,6.78,6.78,0,0,1,4.12,1.28,5.38,5.38,0,0,1,2.16,3,25.59,25.59,0,0,1,.43,5.67V36.26a27.25,27.25,0,0,1-.54,6.52,5.43,5.43,0,0,1-2.23,3.09A7,7,0,0,1,274.06,47a7.21,7.21,0,0,1-3.52-.88,9.59,9.59,0,0,1-3-2.64v7.7H257.35V12.82Zm2.91,9.77a17.19,17.19,0,0,0-.23-3.77c-.15-.44-.58-.66-1.27-.66a1.24,1.24,0,0,0-1.3.76,13.35,13.35,0,0,0-.29,3.67V36.52a13.84,13.84,0,0,0,.3,3.79,1.26,1.26,0,0,0,1.32.76,1.15,1.15,0,0,0,1.23-.69,13.92,13.92,0,0,0,.24-3.38Z" fill="#d6a72a"/><path d="M148.87,57.86v41h-9.31V71.18l-3.71,27.67h-6.61l-3.91-27v27H116v-41h13.79c.41,2.46.83,5.37,1.27,8.71L132.56,77,135,57.86Z" fill="#664839"/><path d="M171.58,57.86l6.09,41H166.78l-.57-7.37h-3.82l-.64,7.37h-11l5.43-41Zm-5.65,26.35q-.81-7-1.63-17.21-1.62,11.77-2,17.21Z" fill="#664839"/><path d="M203.28,57.86v41h-9.35l-5.54-18.64V98.85h-8.91v-41h8.91l6,18.45V57.86Z" fill="#664839"/><path d="M229,57.86v8.2h-6.33V98.85H212V66.06h-6.31v-8.2Z" fill="#664839"/><path d="M231.45,57.86H239a57.49,57.49,0,0,1,10.21.58,7.06,7.06,0,0,1,4.36,3c1.12,1.59,1.68,4.14,1.68,7.63q0,4.78-1.19,6.43c-.79,1.1-2.35,1.75-4.68,2,2.11.53,3.52,1.23,4.25,2.11A6.19,6.19,0,0,1,255,82a37.74,37.74,0,0,1,.27,6.07V98.85h-9.9V85.23c0-2.2-.17-3.56-.52-4.08s-1.25-.78-2.72-.78V98.85H231.45Zm10.66,7V74a4.67,4.67,0,0,0,2.52-.5c.48-.33.72-1.39.72-3.2V68a3.39,3.39,0,0,0-.7-2.56A3.91,3.91,0,0,0,242.11,64.87Z" fill="#664839"/><path d="M277.8,57.86l6.09,41H273l-.57-7.37h-3.81L268,98.85H257l5.43-41Zm-5.65,26.35q-.81-7-1.62-17.21-1.63,11.77-2,17.21Z" fill="#664839"/></symbol></defs><title>makeup-mantra-logo</title><use width="283.87" height="115.98" xlink:href="#a"/></svg>